# xmcd CD database file
#
# Track frame offsets:
#	150
#	12896
#	27300
#	37765
#	59124
#	74355
#	92054
#	109475
#	124627
#	137692
#	151512
#	169844
#	184572
#	195716
#	209122
#	224309
#	237489
#	249298
#	263089
#	280098
#	293296
#	306058
#	319050
#
# Disc length: 4419 seconds
#
# Revision: 1
# Processed by: cddbd v1.5.2PL0 Copyright (c) Steve Scherf et al.
# Submitted via: CDex 1.51
#
DISCID=48114117
DTITLE=Nat King Cole - L-O-V-E (The Complete Capitol Recordings, 1960-64) (BCD 16717 - Disc 03
DYEAR=2006
DGENRE=Jazz
TTITLE0=If I Knew
TTITLE1=I Remember You
TTITLE2=Sunday, Monday Or Always
TTITLE3=A Nightingale Sang In Berkeley Square
TTITLE4=My Need For You
TTITLE5=Poinciana
TTITLE6=The Touch Of Your Lips
TTITLE7=You're Mine, You!
TTITLE8=Illusion
TTITLE9=Funny (Not Much)
TTITLE10=Not So Long Ago
TTITLE11=Only Forever
TTITLE12=Lights Out
TTITLE13=It's Only A Paper Moon
TTITLE14=Sweet Lorraine
TTITLE15=(Get Your Kicks On) Route 66
TTITLE16=Straighten Up And Fly Right
TTITLE17=(I Love You) For Sentimental Reasons
TTITLE18=Embraceable You
TTITLE19=Answer Me My Love
TTITLE20=Darling Je Vous Aime Beaucoup
TTITLE21=Smile
TTITLE22=Pretend
EXTD=YEAR: 2006
EXTT0=
EXTT1=
EXTT2=
EXTT3=
EXTT4=
EXTT5=
EXTT6=
EXTT7=
EXTT8=
EXTT9=
EXTT10=
EXTT11=
EXTT12=
EXTT13=
EXTT14=
EXTT15=
EXTT16=
EXTT17=
EXTT18=
EXTT19=
EXTT20=
EXTT21=
EXTT22=
PLAYORDER=
